<svg width="196" height="77" viewBox="0 0 196 77" fill="none" xmlns="http://www.w3.org/2000/svg">
<rect width="195.014" height="76.519" fill="black"/>
<path d="M92.4729 51.0492L92.9179 44.9569L86.8779 44.0345L91.9188 40.5831L88.8753 35.2877L94.7167 37.0757L96.9596 31.394L99.2034 37.0757L105.045 35.2877L102.001 40.5831L107.042 44.0345L101.002 44.956L101.447 51.0483L96.9596 46.9028L92.4729 51.0492Z" fill="#FFDB5B"/>
<path d="M20.6069 42.9028C20.6069 38.2909 21.6369 34.6177 23.6968 31.8833C25.7749 29.1489 28.6095 27.7817 32.2007 27.7817C35.0809 27.7817 37.4598 28.8573 39.3374 31.0083V15.9146H47.2671V57.9146H40.1304L39.7476 54.77C37.7788 57.231 35.245 58.4614 32.146 58.4614C28.6642 58.4614 25.866 57.0942 23.7515 54.3599C21.6551 51.6073 20.6069 47.7882 20.6069 42.9028ZM28.5093 43.4771C28.5093 46.2479 28.9924 48.3716 29.9585 49.8481C30.9246 51.3247 32.3283 52.063 34.1694 52.063C36.6121 52.063 38.3348 51.033 39.3374 48.9731V37.2974C38.353 35.2375 36.6486 34.2075 34.2241 34.2075C30.4142 34.2075 28.5093 37.2974 28.5093 43.4771ZM69.4155 49.7388C69.4155 48.7726 68.9325 48.0161 67.9663 47.4692C67.0184 46.9041 65.4871 46.4028 63.3726 45.9653C56.3361 44.4888 52.8179 41.4992 52.8179 36.9966C52.8179 34.3716 53.9025 32.1841 56.0718 30.4341C58.2593 28.6659 61.1121 27.7817 64.6304 27.7817C68.3856 27.7817 71.3843 28.6659 73.6265 30.4341C75.8869 32.2023 77.0171 34.4992 77.0171 37.3247H69.1147C69.1147 36.1945 68.7502 35.2648 68.021 34.5356C67.2918 33.7882 66.1525 33.4146 64.603 33.4146C63.2723 33.4146 62.2424 33.7153 61.5132 34.3169C60.784 34.9185 60.4194 35.6841 60.4194 36.6138C60.4194 37.4888 60.8296 38.1997 61.6499 38.7466C62.4884 39.2752 63.8921 39.7401 65.8608 40.1411C67.8296 40.5239 69.4884 40.9614 70.8374 41.4536C75.0119 42.9849 77.0991 45.6372 77.0991 49.4106C77.0991 52.1086 75.9416 54.2961 73.6265 55.9731C71.3114 57.632 68.3218 58.4614 64.6577 58.4614C62.1785 58.4614 59.9728 58.0239 58.0405 57.1489C56.1265 56.2557 54.6226 55.0435 53.5288 53.5122C52.4351 51.9627 51.8882 50.2948 51.8882 48.5083H59.3804C59.4533 49.9119 59.9728 50.9875 60.939 51.7349C61.9051 52.4823 63.1994 52.856 64.8218 52.856C66.3348 52.856 67.4741 52.5734 68.2397 52.0083C69.0236 51.425 69.4155 50.6685 69.4155 49.7388Z" fill="white"/>
<path d="M134.394 57.9146C134.029 57.2036 133.765 56.3195 133.601 55.2622C131.687 57.395 129.199 58.4614 126.136 58.4614C123.238 58.4614 120.832 57.6229 118.917 55.9458C117.022 54.2687 116.074 52.1541 116.074 49.6021C116.074 46.4666 117.231 44.0604 119.546 42.3833C121.88 40.7062 125.243 39.8586 129.636 39.8403H133.273V38.145C133.273 36.7778 132.917 35.6841 132.207 34.8638C131.514 34.0435 130.411 33.6333 128.898 33.6333C127.567 33.6333 126.519 33.9523 125.753 34.5903C125.006 35.2284 124.632 36.1034 124.632 37.2153H116.73C116.73 35.5018 117.259 33.9159 118.316 32.4575C119.373 30.9992 120.868 29.8599 122.8 29.0396C124.733 28.201 126.902 27.7817 129.308 27.7817C132.954 27.7817 135.843 28.7023 137.976 30.5435C140.127 32.3664 141.203 34.9367 141.203 38.2544V51.0786C141.221 53.8859 141.613 56.0096 142.378 57.4497V57.9146H134.394ZM127.859 52.4185C129.026 52.4185 130.101 52.1632 131.085 51.6528C132.07 51.1242 132.799 50.4224 133.273 49.5474V44.4614H130.32C126.364 44.4614 124.259 45.8286 124.003 48.563L123.976 49.0278C123.976 50.0122 124.322 50.8234 125.015 51.4614C125.708 52.0994 126.656 52.4185 127.859 52.4185ZM164.992 54.9067C163.041 57.2765 160.343 58.4614 156.898 58.4614C153.726 58.4614 151.302 57.55 149.625 55.7271C147.966 53.9041 147.118 51.2336 147.082 47.7153V28.3286H154.984V47.4419C154.984 50.5226 156.388 52.063 159.195 52.063C161.875 52.063 163.716 51.1333 164.718 49.2739V28.3286H172.648V57.9146H165.21L164.992 54.9067Z" fill="white"/>
<rect x="3.5" y="3.5" width="188.014" height="69.519" stroke="#FFDC5B" stroke-width="7"/>
</svg>
